<svg id="x" xmlns="http://www.w3.org/2000/svg" width="256" height="256" viewBox="0 0 256 256">
  <defs>
    <style>
      .cls-1 {
        fill: #d7d7d7;
      }

      .cls-2, .cls-3 {
        fill: #363636;
      }

      .cls-3, .cls-4, .cls-5 {
        fill-rule: evenodd;
      }

      .cls-4 {
        fill: #707070;
      }

      .cls-5 {
        fill: #fff;
      }
    </style>
  </defs>
  <rect id="Rounded_Rectangle_2" data-name="Rounded Rectangle 2" class="cls-1" x="82" y="165" width="152" height="35" rx="15.5" ry="15.5"/>
  <rect id="Rounded_Rectangle_2_copy" data-name="Rounded Rectangle 2 copy" class="cls-1" x="65" y="22" width="122" height="36" rx="15.5" ry="15.5"/>
  <rect id="Rounded_Rectangle_3" data-name="Rounded Rectangle 3" class="cls-1" x="13" y="196" width="160" height="32" rx="16" ry="16"/>
  <rect id="Rounded_Rectangle_4" data-name="Rounded Rectangle 4" class="cls-1" x="15" y="95" width="238" height="27" rx="13.5" ry="13.5"/>
  <rect id="Rounded_Rectangle_7" data-name="Rounded Rectangle 7" class="cls-2" x="91" y="27" width="109" height="4" rx="2" ry="2"/>
  <rect id="Rounded_Rectangle_7_copy" data-name="Rounded Rectangle 7 copy" class="cls-2" x="73" y="27" width="11" height="4" rx="2" ry="2"/>
  <rect id="Rounded_Rectangle_7_copy_2" data-name="Rounded Rectangle 7 copy 2" class="cls-2" x="117" y="235" width="73" height="4" rx="2" ry="2"/>
  <rect id="Rounded_Rectangle_7_copy_4" data-name="Rounded Rectangle 7 copy 4" class="cls-2" x="221" y="187" width="29" height="4" rx="2" ry="2"/>
  <rect id="Rounded_Rectangle_7_copy_5" data-name="Rounded Rectangle 7 copy 5" class="cls-2" x="5" y="115" width="19" height="4" rx="2" ry="2"/>
  <path id="Rounded_Rectangle_7_copy_6" data-name="Rounded Rectangle 7 copy 6" class="cls-3" d="M44.086,152.157l5.767,5.767a1.36,1.36,0,0,1-1.922,1.923l-5.767-5.768A1.359,1.359,0,1,1,44.086,152.157Z"/>
  <path id="Rounded_Rectangle_7_copy_7" data-name="Rounded Rectangle 7 copy 7" class="cls-3" d="M47.931,152.157l-5.767,5.767a1.36,1.36,0,0,0,1.922,1.923l5.767-5.768A1.359,1.359,0,1,0,47.931,152.157Z"/>
  <path id="Rounded_Rectangle_7_copy_6-2" data-name="Rounded Rectangle 7 copy 6" class="cls-3" d="M88.765,191.77l7.469,7.468a1.761,1.761,0,1,1-2.49,2.49l-7.469-7.469A1.76,1.76,0,0,1,88.765,191.77Z"/>
  <path id="Rounded_Rectangle_7_copy_7-2" data-name="Rounded Rectangle 7 copy 7" class="cls-3" d="M93.745,191.77l-7.469,7.468a1.761,1.761,0,0,0,2.49,2.49l7.469-7.469A1.76,1.76,0,0,0,93.745,191.77Z"/>
  <path id="Rounded_Rectangle_7_copy_6-3" data-name="Rounded Rectangle 7 copy 6" class="cls-3" d="M194.765,100.77l7.469,7.468a1.76,1.76,0,1,1-2.489,2.49l-7.469-7.469A1.76,1.76,0,0,1,194.765,100.77Z"/>
  <path id="Rounded_Rectangle_7_copy_7-3" data-name="Rounded Rectangle 7 copy 7" class="cls-3" d="M199.745,100.77l-7.469,7.468a1.76,1.76,0,1,0,2.489,2.49l7.469-7.469A1.76,1.76,0,1,0,199.745,100.77Z"/>
  <path class="cls-4" d="M130,117l14-5,5,8,15-1,6-12,14,7-2,12,11,9,10-4,8,15-9,6v15l9,4-3,13H197l-11,11,2,11-11,7-6-8H156l-6,9-14-4,2-9-12-12-11,3-5-14,7-5V158l-9-6,4-15,12,3,8-12Z"/>
  <path class="cls-3" d="M109.039,132.6l12.8,2.494,8.107-9.125-3.812-10.511,18.156-8.964,5.8,10.741,12.266-1.595,5.243-10.465,19.4,6.282-2.494,12.8,9.241,7.115,10.51-3.813,8.965,18.156-9.863,6.908,0.717,11.157,10.349,6.236-5.057,17.534-11.92-1.385-9.1,9.01,3.7,11.5-17.162,9.08L168.852,207l-13.029-.507-5.243,10.464-18.411-6.166,2.378-11.8-10.118-8.223-11.5,3.7-7.971-18.04,9.748-5.915-0.6-12.151-10.349-6.236Zm23.815-14.347,9.632-4.921,4.922,9.632,18.341-1.9,4.134-9.587,10.7,3.257-1.385,11.919,12.867,10.556,10.511-3.812,4.805,10.625-8.754,6.03,0.025,17.117,9.471,5.128-3.141,9.7-9.933-1.154-13.651,13.515,3.928,9.517-8.639,5.036-5.268-6.652-18-1.084-5.127,9.471-9.7-3.141,2.147-9.817L125.121,184.8l-8.523,4.043-4.806-10.625,7.53-4.159,0.206-19.1-9.356-6.121,3.141-9.7,10.811,2.263,11.665-13.746Z"/>
  <path class="cls-5" d="M163.1,130.826c16.183,1.881,27.727,16.969,25.782,33.7s-16.639,28.772-32.823,26.892-27.726-16.969-25.782-33.7S146.921,128.946,163.1,130.826Zm-0.664,5.717c13.13,1.525,22.5,13.767,20.918,27.342s-13.5,23.343-26.63,21.817-22.5-13.767-20.918-27.342S149.311,135.017,162.441,136.543Z"/>
  <path class="cls-4" d="M48,86l-2-9,10-7,6,7,12-2,3-7,12,3-1,8,10,7,9-3,6,10-7,7,2,11,8,3-2,12H104l-7,9,4,9-10,6-6-6-12,2-4,6H57v-8l-9-8-9,1-6-9,8-6-3-12-9-3,4-12h7Z"/>
  <path class="cls-3" d="M55.681,65.51l6.8,8.286L72.4,72.263l3.092-8.657,16.2,3.835-1.955,9.844L98.345,82.7l8.805-3.883,9,14.148-8.286,6.8,2.127,9.35,8.656,3.092-3.835,16.2-9.868-.793-5.393,7.445,3.289,9.374L90.45,152.9l-6.826-7.124-10.487.939-3.686,9.226L53.819,152.7l0.767-8.707L46.6,136.841l-8.806,3.882-8.433-13.554,7.693-6.233-2.1-10.512-9.225-3.686,4.4-15.606L39.4,92.493,45.39,84.48,42.1,75.105ZM78.287,68.9l8.681,1.93-1.93,8.681,12.614,8.41,7.643-3.907,5.07,7.668-7.124,6.826,2.621,13.43,8.656,3.093L112,124.281l-8.706-.768-8.955,10.858,3.314,8.212-7.074,4.5-5.688-5.937-15.731,1.409-2.5,8.088-8.112-1.337,0.149-6.974L47.86,132.216l-8.212,3.313-4.5-7.074,6.505-5.094-3.14-16.35-7.519-1.905,2.524-9.25,6.95,1.311,10.142-12-2.72-8.781,7.074-4.5,5.663,7.1,14.593-2.6Z"/>
  <path class="cls-5" d="M90.475,93.267c9.2,9.611,8.608,25.121-1.316,34.642s-25.425,9.448-34.622-.163-8.608-25.12,1.316-34.641S81.278,83.656,90.475,93.267Zm-3.39,3.253c7.462,7.8,6.984,20.381-1.067,28.1s-20.628,7.666-28.09-.131-6.984-20.381,1.068-28.105S79.623,88.722,87.084,96.519Z"/>
  <path class="cls-4" d="M134,45l7-3,3,5h10l3-4,8,4-2,6,6,6,7-1,3,8-6,4,1,8,5,4-3,8-7-1-6,5,1,6-8,5-3-6H143l-3,5-8-2,1-5-6-8-7,1-2-8,5-3V69l-5-4,3-8,6,2,6-6Z"/>
  <path class="cls-3" d="M142.1,39.412l3.9,6.852,7.382,0.118,3.316-5.894,11.272,4.79-2.638,6.9,5.569,5,6.867-1.724,4.773,11.376-6.852,3.9,0.383,7.043,5.894,3.316-4.79,11.272-7.058-1.8-4.834,4.73,1.223,7.206-10.035,4.6-4.067-6.013-7.721-.619-3.817,6.233L129.937,102.4l1.636-6.218-4.906-6.174L119.8,91.735,115.366,80.86l6.351-3.565L121.5,69.411l-6.232-3.817,5.128-10.771,6.557,2.137,5.335-5.068-1.222-7.206Zm15.972,5.262,6.056,2.476-2.476,6.056,8.1,7.663,6.027-1.886,2.725,6.189L172.5,69.238,172.73,79.3l5.894,3.316-2.977,6.395-6.219-1.636-7.839,6.763,1.384,6.366-5.688,2.386-3.388-5.01-11.582-.929-2.815,5.555-5.717-1.975,0.973-5.04-6.6-8.68L121.789,88.2,119.4,82.51l5.349-2.888L124.5,67.378l-5.216-2.314,2.977-6.395,4.878,1.813,8.841-7.44-0.883-6.7,5.688-2.387,3.226,5.85,10.9-.073Z"/>
  <path class="cls-5" d="M148.5,55A18.5,18.5,0,1,1,130,73.5,18.5,18.5,0,0,1,148.5,55Zm0,3A15.5,15.5,0,1,1,133,73.5,15.5,15.5,0,0,1,148.5,58Z"/>
</svg>
