<svg xmlns="http://www.w3.org/2000/svg" width="309" height="70" viewBox="0 0 309 70">
  <defs>
    <style>
      .cls-1 {
        fill: #323333;
        fill-rule: evenodd;
      }
    </style>
  </defs>
  <path id="Shape_5_copy" data-name="Shape 5 copy" class="cls-1" d="M46,36c0.625-1,15.125-17.5,19-15s-8.708,12.042-7,19c2.125,3.625,14.375-7.5,16-9S87,20,93,20s9.875,3.375,8,5-4.5-4-15,7c-3.375,3.375-3.5,8.25-2,10s9.125-.75,13-4c5-3.25,8.75-9.375,10-7S96.464,47,83,47c-13.375.5-10-11-10-11S60.5,47.125,54,47c-8.083-.125-6-9-6-9S45.375,37,46,36ZM70,11a6.536,6.536,0,0,0-6,6c-0.125,1.75,1.875,3,4,3a6.038,6.038,0,0,0,6-6C73.875,12.5,72,11.125,70,11ZM5,70c-0.375.188-3.375-1.625-4-6C0,57.063,13,37,13,37s-2.625-.687-1-2S28.25,15.875,32,15s5.625,2.625,6,3-2,3-2,3,7.313-4.5,11,0-2.562,15.688-5,19-11.125,8.438-15,8-7-6-7-6S8,62.375,7,64,6.063,69.313,5,70ZM42,23c-1.25-.875-8.125,2.688-12,7s-7,11.688-5,13,8.375-2.312,13-7S43.25,23.875,42,23Zm71,22V0h2V25s3.917-7.917,13-8,14.167,8.833,14,14-4.917,13.917-14,14-13-6-13-6v6h-2Zm15-26c8.583-.167,12,9,12,12s-3.083,11.833-12,12-13.062-6.562-13-12C115.062,27,119.417,19.167,128,19Zm19,26V17h2v4s4.25-4,9-4a8.51,8.51,0,0,1,6,3l-2,1a4.647,4.647,0,0,0-4-2c-5.667,0-9,6-9,6V45h-2Zm27-5,18-18s-5.333-5.167-11-5-13.917,4.167-14,14,8.333,14.167,15,14a16.606,16.606,0,0,0,11-5l-2-1s-4.083,4-9,4A12.238,12.238,0,0,1,174,40Zm-2-1,17-17s-3.667-3.083-8-3c-7.167.083-11.917,7-12,12A11.535,11.535,0,0,0,172,39Zm32,1,18-18s-5.333-5.167-11-5-13.917,4.167-14,14,8.333,14.167,15,14a16.606,16.606,0,0,0,11-5l-2-1s-4.083,4-9,4A12.238,12.238,0,0,1,204,40Zm-2-1,17-17s-3.667-3.083-8-3c-7.167.083-11.917,7-12,12A11.535,11.535,0,0,0,202,39Zm53,6V0h-2V25s-3.917-7.917-13-8-14.167,8.833-14,14,4.917,13.917,14,14,13-6,13-6v6h2ZM240,19c-8.583-.167-12,9-12,12s3.083,11.833,12,12,13.063-6.562,13-12C252.938,27,248.583,19.167,240,19Zm28,21,18-18s-5.333-5.167-11-5-13.917,4.167-14,14,8.333,14.167,15,14a16.606,16.606,0,0,0,11-5l-2-1s-4.083,4-9,4A12.238,12.238,0,0,1,268,40Zm-2-1,17-17s-3.667-3.083-8-3c-7.167.083-11.917,7-12,12A11.535,11.535,0,0,0,266,39Zm26,6V17h2v4s4.25-4,9-4a8.51,8.51,0,0,1,6,3l-2,1a4.647,4.647,0,0,0-4-2c-5.667,0-9,6-9,6V45h-2Z"/>
</svg>
